HIERARCHY
ROOT root
{
	OFFSET	0	13.1	24.9
	CHANNELS 6  Xposition Yposition Zposition Xrotation Yrotation Zrotation
	JOINT spine_1
	{
		OFFSET	0	9.99999	0
		CHANNELS 3  Xrotation Yrotation Zrotation
		JOINT spine_2
		{
			OFFSET	0	112	-10
			CHANNELS 3  Xrotation Yrotation Zrotation
			JOINT spine_3
			{
				OFFSET	0	206.5	19.3
				CHANNELS 3  Xrotation Yrotation Zrotation
				JOINT spine_4
				{
					OFFSET	0	110.4	14.6
					CHANNELS 3  Xrotation Yrotation Zrotation
					JOINT neck_1
					{
						OFFSET	0	71.8	-50.3
						CHANNELS 3  Xrotation Yrotation Zrotation
						JOINT neck_2
						{
							OFFSET	0	86.2	-25.8
							CHANNELS 3  Xrotation Yrotation Zrotation
							JOINT head_ee
							{
								OFFSET	0	179.8	-8.7
								CHANNELS 3  Xrotation Yrotation Zrotation
								End Site
								{
									OFFSET	1	0	0
								}
							}
						}
					}
					JOINT left_clavicle
					{
						OFFSET	-43.2	22.4	-70.8
						CHANNELS 3  Xrotation Yrotation Zrotation
						JOINT left_shoulder
						{
							OFFSET	-93.9	-5.79999	48.7
							CHANNELS 3  Xrotation Yrotation Zrotation
							JOINT left_elbow
							{
								OFFSET	-291.4	-30.8	15.2
								CHANNELS 3  Xrotation Yrotation Zrotation
								JOINT left_lowarm_twist
								{
									OFFSET	-110.7	-3.89999	13.6
									CHANNELS 3  Xrotation Yrotation Zrotation
									JOINT left_hand
									{
										OFFSET	-110.7	-3.89999	13.6
										CHANNELS 3  Xrotation Yrotation Zrotation
										JOINT left_ee
										{
											OFFSET	-80.8	-5.10001	12.1
											CHANNELS 3  Xrotation Yrotation Zrotation
											End Site
											{
												OFFSET	1	0	0
											}
										}
									}
								}
							}
						}
					}
					JOINT right_clavicle
					{
						OFFSET	43.2	22.4	-70.8
						CHANNELS 3  Xrotation Yrotation Zrotation
						JOINT right_shoulder
						{
							OFFSET	93.9	-5.79999	48.7
							CHANNELS 3  Xrotation Yrotation Zrotation
							JOINT right_elbow
							{
								OFFSET	291.4	-30.8	15.2
								CHANNELS 3  Xrotation Yrotation Zrotation
								JOINT right_lowarm_twist
								{
									OFFSET	110.7	-3.89999	13.6
									CHANNELS 3  Xrotation Yrotation Zrotation
									JOINT right_hand
									{
										OFFSET	110.7	-3.89999	13.6
										CHANNELS 3  Xrotation Yrotation Zrotation
										JOINT right_ee
										{
											OFFSET	80.8	-5.10001	12.1
											CHANNELS 3  Xrotation Yrotation Zrotation
											End Site
											{
												OFFSET	1	0	0
											}
										}
									}
								}
							}
						}
					}
				}
			}
		}
	}
	JOINT left_hip
	{
		OFFSET	-82.8	-127.5	0.300001
		CHANNELS 3  Xrotation Yrotation Zrotation
		JOINT left_knee
		{
			OFFSET	-28.2	-396.7	2.2
			CHANNELS 3  Xrotation Yrotation Zrotation
			JOINT left_ankle
			{
				OFFSET	-11.7	-411.3	35.4
				CHANNELS 3  Xrotation Yrotation Zrotation
				JOINT left_toes
				{
					OFFSET	0	-60	-88.6
					CHANNELS 3  Xrotation Yrotation Zrotation
					JOINT left_foot_ee
					{
						OFFSET	-22.5	-16.5	-42.2
						CHANNELS 3  Xrotation Yrotation Zrotation
						End Site
						{
							OFFSET	1	0	0
						}
					}
				}
			}
		}
	}
	JOINT right_hip
	{
		OFFSET	82.8	-127.5	0.300001
		CHANNELS 3  Xrotation Yrotation Zrotation
		JOINT right_knee
		{
			OFFSET	28.2	-396.7	2.2
			CHANNELS 3  Xrotation Yrotation Zrotation
			JOINT right_ankle
			{
				OFFSET	11.7	-411.3	35.4
				CHANNELS 3  Xrotation Yrotation Zrotation
				JOINT right_toes
				{
					OFFSET	0	-60	-88.6
					CHANNELS 3  Xrotation Yrotation Zrotation
					JOINT right_foot_ee
					{
						OFFSET	22.5	-16.5	-42.2
						CHANNELS 3  Xrotation Yrotation Zrotation
						End Site
						{
							OFFSET	1	0	0
						}
					}
				}
			}
		}
	}
}
MOTION
Frames: 12
Frame Time: 0.02
3177.02 653.055 -1669.29 -25.803816382 66.5751011182 22.1766386086 3.43903 0.472618 1.61676 3.4404 0.368796 1.64355 3.45044 0.116555 1.68037 3.4467 0.38044 1.6409 -6.84109 4.48734 -5.31869 -6.73967 12.1774 -4.44233 -0.0 0.0 -0.0 -3.16607 22.3265 -1.85463 -36.5637 -21.8526 67.9384 0.344174 -9.67572 0.0291302 9.79089 0.240714 -1.22601 -0.188111 16.4103 5.53305 -0.0 0.0 -0.0 12.2287 24.0588 -24.1119 26.238 19.9938 -57.3413 2.98603 55.9282 -1.58556 0.9293 -0.0318148 0.114422 0.744433 12.7953 0.425512 0.0 0.0 0.0 37.305 -8.24421 -3.23447 -1.56345 0.0612101 0.232119 2.46402 8.27845 -0.358368 -34.3343 0.0 0.0 -0.0 0.0 -0.0 -2.17987 -5.59372 3.71649 -14.9967 -0.321672 -2.27238 39.3205 13.7239 5.06576 -9.23562 0.0 0.0 0.0 0.0 0.0 
3072.22491835 646.686 -1675.132385 -25.2725451347 61.4716033865 21.958631962 4.07827 0.541675 1.91807 4.08022 0.418549 1.94864 4.09329 0.142053 1.988 4.08807 0.454178 1.94065 -2.12569 4.43639 -6.33868 -1.88045 13.0232 -6.10051 -0.0 0.0 -0.0 -2.90472 24.4851 -1.06435 -37.0458 -26.8523 64.1377 0.661387 -18.1405 0.105586 10.9371 0.255101 -1.37172 -0.300285 21.9367 7.03229 -0.0 0.0 -0.0 12.4899 24.8965 -24.6251 24.309 23.6055 -58.7648 2.83841 54.569 -1.46426 -6.83534 0.290386 -0.823629 1.05962 6.28243 -4.48944 0.0 0.0 0.0 38.9661 -8.42902 -4.03422 -15.6657 0.322072 2.37503 17.164 8.25891 -2.37345 -36.5657 0.0 0.0 -0.0 0.0 -0.0 -3.92471 -4.28603 6.1435 -17.9624 -0.314326 -2.7273 36.3981 4.21689 4.59637 -6.788 0.0 0.0 0.0 0.0 0.0 
3042.4176284 650.412 -1677.7471602 -24.192145897 61.4313766551 20.7475743034 4.04489 0.464461 1.75952 4.04655 0.351575 1.7855 4.05653 0.0973371 1.81717 4.05213 0.383058 1.77901 -1.18776 5.2477 -4.42993 -0.995667 12.9777 -4.08853 -0.0 0.0 -0.0 -3.39816 24.3447 -1.75777 -37.1301 -28.1243 63.7347 0.839683 -22.5849 0.167673 11.0881 0.256779 -1.39093 -0.0143246 21.7397 8.64243 -0.0 0.0 -0.0 12.6757 26.3639 -24.8866 22.5525 22.8884 -59.2524 2.72794 53.4887 -1.37485 -10.2061 0.469307 -1.21581 0.909184 4.2258 -4.33668 0.0 0.0 0.0 37.1879 -8.97939 -2.87857 -19.1306 0.30497 2.90629 23.2071 9.11562 -3.12271 -35.5732 0.0 0.0 -0.0 0.0 -0.0 -3.54716 -4.25633 7.15325 -20.983 -0.282658 -3.18964 33.2192 1.74607 4.25873 -5.72059 0.0 0.0 0.0 0.0 0.0 
3018.32534982 653.842 -1672.58086677 -22.4400638757 60.6219997444 19.0314214624 3.93372 0.40247 1.65445 3.93519 0.296393 1.6767 3.94305 0.0545845 1.70181 3.93915 0.322631 1.67185 -0.323443 6.36033 -3.66937 -0.107501 14.34 -3.25803 -0.0 0.0 -0.0 -3.06634 23.8087 -1.41728 -36.2478 -29.5057 63.5989 0.963554 -25.5155 0.218172 10.6816 0.252146 -1.33921 -0.0516341 22.5592 8.72896 -0.0 0.0 -0.0 12.7718 26.4047 -25.103 20.5069 22.9485 -59.3463 2.66834 52.882 -1.32713 -12.5808 0.609103 -1.48555 1.07991 3.80761 -5.66496 0.0 0.0 0.0 36.5042 -9.35363 -1.50217 -21.9176 0.267928 3.33228 26.8762 8.84727 -3.54814 -35.796 0.0 0.0 -0.0 0.0 -0.0 -3.216 -2.78633 8.28304 -22.9961 -0.248038 -3.49659 31.1212 -1.42466 4.01955 -5.35716 0.0 0.0 0.0 0.0 0.0 
2977.16304932 662.673 -1671.55809687 -22.4558068301 60.898065572 18.4361112086 3.82592 0.0104996 1.50838 3.82718 -0.085493 1.506 3.82425 -0.302292 1.47783 3.82121 -0.0651304 1.50701 0.64714 8.34704 -1.8535 0.891707 16.3399 -1.22018 -0.0 0.0 -0.0 -1.91482 22.9394 0.00751172 -33.9263 -30.5362 62.1003 1.11167 -28.8403 0.285855 9.88699 0.242032 -1.23822 -0.0700921 22.9898 8.78164 -0.0 0.0 -0.0 12.7614 26.1803 -25.1056 17.4075 22.1062 -59.4112 2.40633 49.9989 -1.12219 -15.8773 0.821494 -1.85003 1.08105 2.85594 -6.06789 0.0 0.0 0.0 34.3888 -9.20688 1.30599 -20.3147 0.291764 3.0875 32.0424 8.91017 -4.10803 -36.4497 0.0 0.0 -0.0 0.0 -0.0 -1.71681 0.584619 9.66014 -26.2259 -0.170022 -3.98603 28.7033 -5.36586 3.74834 -4.54252 0.0 0.0 0.0 0.0 0.0 
2922.81720664 673.787 -1678.37880357 -15.4928055444 59.2324188242 11.1524693951 3.01773 -0.151578 1.40793 3.01881 -0.240853 1.39544 3.01254 -0.459098 1.3396 3.01012 -0.241794 1.39528 -1.49742 11.0827 0.652029 -1.28089 19.4539 2.04721 -0.0 0.0 -0.0 -0.134788 20.9038 2.23832 -21.8555 -34.3849 59.9844 0.877239 -23.4875 0.18237 7.45138 0.202319 -0.929657 -0.422282 25.3957 7.66737 -0.0 0.0 -0.0 12.6387 25.812 -24.8659 10.4703 20.1483 -61.2256 2.08442 45.9122 -0.882979 -17.9639 0.966674 -2.07427 1.22338 2.90349 -7.01114 0.0 0.0 0.0 28.7264 -9.21951 4.96955 -23.9636 0.227567 3.64364 39.542 8.64264 -4.8275 -37.3894 0.0 0.0 -0.0 0.0 -0.0 0.251223 10.2401 10.8834 -39.0717 0.408768 -5.8679 28.4773 -13.9221 3.75611 -2.66857 0.0 0.0 0.0 0.0 0.0 
2922.77221795 673.787 -1677.01863666 -15.6317588758 59.52772652 11.3139364048 3.01773 -0.151578 1.40793 3.01881 -0.240853 1.39544 3.01254 -0.459098 1.3396 3.01012 -0.241794 1.39528 -1.49742 11.0827 0.652029 -1.28089 19.4539 2.04721 -0.0 0.0 -0.0 -0.134788 20.9038 2.23832 -21.8555 -34.3849 59.9844 0.877239 -23.4875 0.18237 7.45138 0.202319 -0.929657 -0.422282 25.3957 7.66737 -0.0 0.0 -0.0 12.6387 25.812 -24.8659 10.4703 20.1483 -61.2256 2.08442 45.9122 -0.882979 -17.9639 0.966674 -2.07427 1.22338 2.90349 -7.01114 0.0 0.0 0.0 28.7264 -9.21951 4.96955 -23.9636 0.227567 3.64364 39.542 8.64264 -4.8275 -37.3894 0.0 0.0 -0.0 0.0 -0.0 0.251223 10.2401 10.8834 -39.0717 0.408768 -5.8679 28.4773 -13.9221 3.75611 -2.66857 0.0 0.0 0.0 0.0 0.0 
2922.75216891 673.787 -1676.32822224 -15.7033803674 59.6775273761 11.3969721911 3.01773 -0.151578 1.40793 3.01881 -0.240853 1.39544 3.01254 -0.459098 1.3396 3.01012 -0.241794 1.39528 -1.49742 11.0827 0.652029 -1.28089 19.4539 2.04721 -0.0 0.0 -0.0 -0.134788 20.9038 2.23832 -21.8555 -34.3849 59.9844 0.877239 -23.4875 0.18237 7.45138 0.202319 -0.929657 -0.422282 25.3957 7.66737 -0.0 0.0 -0.0 12.6387 25.812 -24.8659 10.4703 20.1483 -61.2256 2.08442 45.9122 -0.882979 -17.9639 0.966674 -2.07427 1.22338 2.90349 -7.01114 0.0 0.0 0.0 28.7264 -9.21951 4.96955 -23.9636 0.227567 3.64364 39.542 8.64264 -4.8275 -37.3894 0.0 0.0 -0.0 0.0 -0.0 0.251223 10.2401 10.8834 -39.0717 0.408768 -5.8679 28.4773 -13.9221 3.75611 -2.66857 0.0 0.0 0.0 0.0 0.0 
2922.7210813 673.787 -1675.09744779 -15.8329201729 59.9444124881 11.5468377248 3.01773 -0.151578 1.40793 3.01881 -0.240853 1.39544 3.01254 -0.459098 1.3396 3.01012 -0.241794 1.39528 -1.49742 11.0827 0.652029 -1.28089 19.4539 2.04721 -0.0 0.0 -0.0 -0.134788 20.9038 2.23832 -21.8555 -34.3849 59.9844 0.877239 -23.4875 0.18237 7.45138 0.202319 -0.929657 -0.422282 25.3957 7.66737 -0.0 0.0 -0.0 12.6387 25.812 -24.8659 10.4703 20.1483 -61.2256 2.08442 45.9122 -0.882979 -17.9639 0.966674 -2.07427 1.22338 2.90349 -7.01114 0.0 0.0 0.0 28.7264 -9.21951 4.96955 -23.9636 0.227567 3.64364 39.542 8.64264 -4.8275 -37.3894 0.0 0.0 -0.0 0.0 -0.0 0.251223 10.2401 10.8834 -39.0717 0.408768 -5.8679 28.4773 -13.9221 3.75611 -2.66857 0.0 0.0 0.0 0.0 0.0 
2922.69202698 673.787 -1673.64300344 -15.9891549135 60.2595384306 11.7270564425 3.01773 -0.151578 1.40793 3.01881 -0.240853 1.39544 3.01254 -0.459098 1.3396 3.01012 -0.241794 1.39528 -1.49742 11.0827 0.652029 -1.28089 19.4539 2.04721 -0.0 0.0 -0.0 -0.134788 20.9038 2.23832 -21.8555 -34.3849 59.9844 0.877239 -23.4875 0.18237 7.45138 0.202319 -0.929657 -0.422282 25.3957 7.66737 -0.0 0.0 -0.0 12.6387 25.812 -24.8659 10.4703 20.1483 -61.2256 2.08442 45.9122 -0.882979 -17.9639 0.966674 -2.07427 1.22338 2.90349 -7.01114 0.0 0.0 0.0 28.7264 -9.21951 4.96955 -23.9636 0.227567 3.64364 39.542 8.64264 -4.8275 -37.3894 0.0 0.0 -0.0 0.0 -0.0 0.251223 10.2401 10.8834 -39.0717 0.408768 -5.8679 28.4773 -13.9221 3.75611 -2.66857 0.0 0.0 0.0 0.0 0.0 
2904.90606903 674.925 -1670.42691369 -15.1454277067 61.3613602912 11.5061124049 2.72949 -0.180532 1.21605 2.73027 -0.257541 1.2021 2.72462 -0.450656 1.14381 2.72289 -0.26437 1.20062 -0.753931 10.7927 -0.336205 -0.493437 19.6235 0.852067 -0.0 0.0 -0.0 -0.0968719 21.1443 2.32034 -17.9379 -35.7135 61.0475 0.805237 -21.7465 0.154677 6.26448 0.17822 -0.779959 -0.5329 26.3703 7.42214 -0.0 0.0 -0.0 12.2138 25.248 -23.9532 8.74362 19.4607 -61.2878 1.88584 43.0469 -0.743801 -18.7873 1.0262 -2.16129 1.1753 1.89536 -7.10126 0.0 0.0 0.0 27.7491 -10.7373 5.91622 -25.3629 0.193569 3.85569 41.2897 11.9633 -5.00631 -37.0788 0.0 0.0 -0.0 0.0 -0.0 0.669764 13.9573 9.09853 -42.4665 0.631095 -6.34007 31.9976 -15.897 4.16038 -1.47336 0.0 0.0 0.0 0.0 0.0 
2885.15153022 679.558 -1670.04871385 -13.6902990207 63.4208184463 10.2948838363 2.51021 -0.260404 1.14301 2.51088 -0.332604 1.12413 2.50415 -0.516017 1.05263 2.50277 -0.343309 1.12091 -0.555753 11.0384 -0.258718 -0.278452 19.977 0.931047 -0.0 0.0 -0.0 0.0673745 20.7557 2.51358 -15.2812 -36.5372 60.6027 0.757235 -20.5616 0.137353 5.4102 0.158957 -0.672533 -0.641073 26.7531 6.96882 -0.0 0.0 -0.0 12.0073 24.8225 -23.5262 5.59471 18.49 -61.6276 1.76944 41.2317 -0.665692 -19.3649 1.06871 -2.22184 1.19037 1.68367 -7.29009 0.0 0.0 0.0 25.732 -12.0368 6.71451 -27.0427 0.14593 4.10906 42.1576 11.6322 -5.07627 -37.0968 0.0 0.0 -0.0 0.0 -0.0 1.32377 15.9951 7.53983 -44.6751 0.790656 -6.63998 34.3981 -16.935 4.42467 -0.692104 0.0 0.0 0.0 0.0 0.0 
